<svg width="207" height="191" viewBox="0 0 207 191" fill="none" xmlns="http://www.w3.org/2000/svg">
<g filter="url(#filter0_d)">
<rect x="30" y="50" width="67" height="31" rx="5" fill="white"/>
</g>
<path d="M43.2456 72.734C43.2365 72.7272 43.2261 72.7188 43.2154 72.7092C43.0411 72.4931 41.9641 71.1428 40.8667 69.4106C40.5375 68.8585 40.3238 68.428 40.3648 68.3168C40.4721 68.0275 42.3854 67.8689 42.9746 68.1314C43.1537 68.2111 43.1493 68.3165 43.1493 68.3778C43.1493 68.643 43.1362 69.3538 43.1362 69.3538C43.1364 69.5008 43.2557 69.62 43.4027 69.6199C43.55 69.6199 43.6687 69.5002 43.6682 69.353L43.6652 67.5813H43.6646C43.6646 67.4276 43.4969 67.3891 43.4654 67.383C43.1579 67.3817 42.5334 67.3795 41.8627 67.3795C40.3831 67.3795 40.0524 67.4405 39.8011 67.2757C39.2566 66.9192 38.3661 64.5168 38.3453 63.1649C38.3156 61.258 39.4445 59.6071 41.0341 58.789C41.6982 58.4544 42.4483 58.2659 43.2405 58.2659C45.7564 58.2659 47.8282 60.1665 48.1039 62.6121C48.1042 62.6141 48.1042 62.6164 48.1048 62.6186C48.1552 63.2098 44.9 63.3355 44.2561 63.1635C44.1573 63.1371 44.1321 63.0359 44.1321 62.9924C44.1314 62.5427 44.1284 61.2777 44.1284 61.2777C44.1279 61.1306 44.0085 61.0114 43.8616 61.0117H43.8614C43.7146 61.0119 43.5956 61.1315 43.5956 61.2787L43.6009 63.6091C43.6054 63.7558 43.7284 63.7956 43.7622 63.8021C44.1284 63.8021 44.9848 63.8014 45.7823 63.8014C46.8602 63.8014 47.3131 63.9265 47.6144 64.1558C47.8147 64.3089 47.8922 64.6015 47.8246 64.9819C47.2198 68.3665 43.3895 72.5592 43.2456 72.734ZM53.6337 64.8354C54.6001 65.2499 55.1988 65.7099 55.1988 66.7196C55.1988 67.7508 54.4182 68.4171 53.2106 68.4171C52.232 68.4171 51.4466 67.9733 51.0554 67.1997L50.992 67.0747L52.1426 66.4076L52.2181 66.5309C52.4772 66.9549 52.7668 67.1353 53.1868 67.1353C53.549 67.1353 53.7923 66.9747 53.7923 66.7356C53.7923 66.4706 53.6161 66.3711 53.0717 66.1325L52.795 66.014C52.0567 65.699 51.3727 65.2612 51.3727 64.2011C51.3727 63.2485 52.1023 62.5831 53.1469 62.5831C53.9383 62.5831 54.4808 62.8896 54.8542 63.5479L54.9235 63.6702L53.8087 64.3872L53.7319 64.2496C53.5455 63.9159 53.3701 63.8489 53.1469 63.8489C52.9137 63.8489 52.7636 63.9776 52.7636 64.1774C52.7636 64.4066 52.8743 64.5073 53.3566 64.7164L53.6337 64.8354ZM61.7778 65.0305L62.59 62.7636H63.9841L61.9179 68.5106H61.6083L60.3551 65.819C60.2967 65.6958 60.2366 65.5426 60.1849 65.4024C60.1319 65.5431 60.0702 65.6965 60.0119 65.8199L58.7096 68.5108H58.4021L56.3029 62.7638H57.7921L58.6133 65.0307C58.6657 65.1752 58.7195 65.3517 58.7665 65.5151C58.8223 65.3462 58.8894 65.1639 58.9595 65.0171L60.0381 62.7165H60.3364L61.4316 65.0173C61.5015 65.1642 61.5688 65.3465 61.6243 65.5152C61.6718 65.3516 61.7257 65.1751 61.7778 65.0305ZM65.61 68.3455V62.6461H67.0171V68.3455H65.61ZM71.6305 66.4307V65.157H74.2434V67.7112L74.1893 67.7559C73.8905 68.0016 73.0979 68.4171 72.0246 68.4171C70.2136 68.4171 68.9494 67.2161 68.9494 65.496C68.9494 63.8081 70.1692 62.5829 71.8502 62.5829C72.7745 62.5829 73.452 62.8437 73.9209 63.3804L74.0127 63.4853L73.0536 64.4355L72.9494 64.3281C72.6813 64.0516 72.4039 63.8805 71.85 63.8805C70.9891 63.8805 70.3876 64.5448 70.3876 65.496C70.3876 66.4869 71.0299 67.1275 72.0245 67.1275C72.3544 67.1275 72.6977 67.0708 72.9315 66.9797V66.4306H71.6305V66.4307ZM78.761 66.4307V65.157H81.3738V67.7112L81.3197 67.7559C81.0206 68.0016 80.2285 68.4171 79.1552 68.4171C77.3443 68.4171 76.0797 67.2161 76.0797 65.496C76.0797 63.8081 77.3 62.5829 78.9803 62.5829C79.9051 62.5829 80.5827 62.8437 81.0516 63.3804L81.1433 63.4853L80.1844 64.4355L80.08 64.3281C79.8122 64.0516 79.5345 63.8805 78.9803 63.8805C78.1196 63.8805 77.5183 64.5448 77.5183 65.496C77.5183 66.4869 78.1607 67.1275 79.1552 67.1275C79.4851 67.1275 79.8285 67.0708 80.0621 66.9797V66.4306H78.761V66.4307ZM86.5293 62.6461H88.0001L85.9815 66.4387V68.3455H84.5669V66.5198L82.4163 62.6461H83.9856L84.9794 64.4634C85.0864 64.661 85.1978 64.9223 85.2823 65.1345C85.3631 64.9241 85.4697 64.6652 85.5759 64.4651L86.5293 62.6461Z" fill="#F68620"/>
<defs>
<filter id="filter0_d" x="-20" y="0" width="227" height="191" filterUnits="userSpaceOnUse" color-interpolation-filters="sRGB">
<feFlood flood-opacity="0" result="BackgroundImageFix"/>
<feColorMatrix in="SourceAlpha" type="matrix" values="0 0 0 0 0 0 0 0 0 0 0 0 0 0 0 0 0 0 127 0"/>
<feOffset dx="30" dy="30"/>
<feGaussianBlur stdDeviation="40"/>
<feColorMatrix type="matrix" values="0 0 0 0 0 0 0 0 0 0 0 0 0 0 0 0 0 0 0.1 0"/>
<feBlend mode="normal" in2="BackgroundImageFix" result="effect1_dropShadow"/>
<feBlend mode="normal" in="SourceGraphic" in2="effect1_dropShadow" result="shape"/>
</filter>
</defs>
</svg>
